name ./resultDataOpenSim/trcMotMarkerGrf/sub10/grf-15-03.mot
datacolumns 19
datarows 17
range 0.97200000 1.03600000
endheader

                time	     ground_force_vx	     ground_force_vy	     ground_force_vz	     ground_force_px	     ground_force_py	     ground_force_pz	   l_ground_force_vx	   l_ground_force_vy	   l_ground_force_vz	   l_ground_force_px	   l_ground_force_py	   l_ground_force_pz	     ground_torque_x	     ground_torque_y	     ground_torque_z	   l_ground_torque_x	   l_ground_torque_y	   l_ground_torque_z	
          0.97200000	          0.00000000	          0.00000000	          0.00000000	          0.00000000	          0.00000000	          0.00000000	        100.17084729	        586.74085572	          8.26001848	         -0.02342781	         -0.09999900	         -0.08723361	          0.00000000	          0.00000000	          0.00000000	          0.00000000	         -0.35161012	          0.00000000	
          0.97600000	          0.00000000	          0.00000000	          0.00000000	          0.00000000	          0.00000000	          0.00000000	        102.98183144	        581.13650595	          4.91304163	         -0.02271384	         -0.09999900	         -0.08613154	          0.00000000	          0.00000000	          0.00000000	          0.00000000	         -0.48841683	          0.00000000	
          0.98000000	          0.00000000	          0.00000000	          0.00000000	          0.00000000	          0.00000000	          0.00000000	        105.69500212	        575.39352677	          0.92784285	         -0.02191811	         -0.09999900	         -0.08486486	          0.00000000	          0.00000000	          0.00000000	          0.00000000	         -0.66254995	          0.00000000	
          0.98400000	          0.00000000	          0.00000000	          0.00000000	          0.00000000	          0.00000000	          0.00000000	        108.28952915	        569.45618886	         -3.59463612	         -0.02103583	         -0.09999900	         -0.08344802	          0.00000000	          0.00000000	          0.00000000	          0.00000000	         -0.87155428	          0.00000000	
          0.98800000	          0.00000000	          0.00000000	          0.00000000	          0.00000000	          0.00000000	          0.00000000	        110.75501601	        563.28993622	         -8.52238813	         -0.02006811	         -0.09999900	         -0.08190835	          0.00000000	          0.00000000	          0.00000000	          0.00000000	         -1.11044696	          0.00000000	
          0.99200000	          0.00000000	          0.00000000	          0.00000000	          0.00000000	          0.00000000	          0.00000000	        113.09650820	        556.85330813	        -13.70697387	         -0.01900742	         -0.09999900	         -0.08027178	          0.00000000	          0.00000000	          0.00000000	          0.00000000	         -1.37201687	          0.00000000	
          0.99600000	          0.00000000	          0.00000000	          0.00000000	          0.00000000	          0.00000000	          0.00000000	        115.30891042	        550.02743148	        -19.00107054	         -0.01787438	         -0.09999899	         -0.07858681	          0.00000000	          0.00000000	          0.00000000	          0.00000000	         -1.64709785	          0.00000000	
          1.00000000	          0.00000000	          0.00000000	          0.00000000	          0.00000000	          0.00000000	          0.00000000	        117.36548597	        542.55213348	        -24.26890837	         -0.01676193	         -0.09999883	         -0.07694040	          0.00000000	          0.00000000	          0.00000000	          0.00000000	         -1.92498824	          0.00000000	
          1.00400000	          0.00000000	          0.00000000	          0.00000000	          0.00000000	          0.00000000	          0.00000000	        119.23629387	        534.06803071	        -29.38982730	         -0.01580188	         -0.09999803	         -0.07544212	          0.00000000	          0.00000000	          0.00000000	          0.00000000	         -2.19421962	          0.00000000	
          1.00800000	          0.00000000	          0.00000000	          0.00000000	          0.00000000	          0.00000000	          0.00000000	        120.88682282	        524.25231132	        -34.24858077	         -0.01505312	         -0.09999846	         -0.07413979	          0.00000000	          0.00000000	          0.00000000	          0.00000000	         -2.44361911	          0.00000000	
          1.01200000	          0.00000000	          0.00000000	          0.00000000	          0.00000000	          0.00000000	          0.00000000	        122.26432823	        512.91290012	        -38.71631039	         -0.01447025	         -0.09999835	         -0.07299464	          0.00000000	          0.00000000	          0.00000000	          0.00000000	         -2.66332868	          0.00000000	
          1.01600000	          0.00000000	          0.00000000	          0.00000000	          0.00000000	          0.00000000	          0.00000000	        123.30646990	        499.96571268	        -42.64572040	         -0.01395561	         -0.09999805	         -0.07195485	          0.00000000	          0.00000000	          0.00000000	          0.00000000	         -2.84550089	          0.00000000	
          1.02000000	          0.00000000	          0.00000000	          0.00000000	          0.00000000	          0.00000000	          0.00000000	        123.95281633	        485.35566731	        -45.88754976	         -0.01345619	         -0.09999800	         -0.07101656	          0.00000000	          0.00000000	          0.00000000	          0.00000000	         -2.98466369	          0.00000000	
          1.02400000	          0.00000000	          0.00000000	          0.00000000	          0.00000000	          0.00000000	          0.00000000	        124.13773023	        469.00487890	        -48.31623008	         -0.01294548	         -0.09999800	         -0.07019919	          0.00000000	          0.00000000	          0.00000000	          0.00000000	         -3.07784681	          0.00000000	
          1.02800000	          0.00000000	          0.00000000	          0.00000000	          0.00000000	          0.00000000	          0.00000000	        123.78193159	        450.82583577	        -49.85619152	         -0.01240289	         -0.09999800	         -0.06951013	          0.00000000	          0.00000000	          0.00000000	          0.00000000	         -3.12447965	          0.00000000	
          1.03200000	          0.00000000	          0.00000000	          0.00000000	          0.00000000	          0.00000000	          0.00000000	        122.80601684	        430.78908210	        -50.49728337	         -0.01181172	         -0.09999732	         -0.06894075	          0.00000000	          0.00000000	          0.00000000	          0.00000000	         -3.12605872	          0.00000000	
          1.03600000	          0.00000000	          0.00000000	          0.00000000	          0.00000000	          0.00000000	          0.00000000	        121.15331785	        409.00232543	        -50.28391212	         -0.01117903	         -0.09999700	         -0.06847864	          0.00000000	          0.00000000	          0.00000000	          0.00000000	         -3.08566907	          0.00000000	
